<svg width="200" height="200" viewBox="0 0 200 200" fill="none" xmlns="http://www.w3.org/2000/svg">
<circle cx="81.0857" cy="18.761" r="2.48222" fill="white"/>
<circle cx="119.972" cy="182.588" r="2.48222" fill="white"/>
<path d="M76.2772 186.552C76.1816 187.446 76.4455 188.218 77.069 188.867C77.6925 189.515 78.537 189.961 79.6027 190.204C80.3818 190.382 81.0924 190.412 81.7343 190.293C82.3704 190.173 82.9022 189.93 83.3294 189.563C83.7509 189.195 84.0258 188.731 84.1539 188.169C84.2611 187.699 84.2416 187.27 84.0953 186.881C83.942 186.496 83.7132 186.152 83.409 185.847C83.1035 185.548 82.7723 185.283 82.4154 185.051C82.0572 184.824 81.7246 184.631 81.4177 184.471L79.7401 183.581C79.3092 183.356 78.8372 183.074 78.3241 182.734C77.8053 182.392 77.33 181.979 76.898 181.495C76.4591 181.015 76.1353 180.453 75.9267 179.809C75.7182 179.164 75.708 178.43 75.8963 177.605C76.1134 176.654 76.5588 175.851 77.2324 175.197C77.9004 174.542 78.7615 174.097 79.8158 173.861C80.8644 173.624 82.0648 173.66 83.4169 173.969C84.6773 174.256 85.7223 174.709 86.5518 175.326C87.3756 175.942 87.968 176.674 88.3291 177.522C88.6843 178.369 88.7865 179.281 88.6356 180.259L86.4356 179.757C86.53 179.079 86.4321 178.478 86.1419 177.954C85.8446 177.434 85.4194 176.999 84.8663 176.65C84.306 176.305 83.6765 176.053 82.9775 175.894C82.164 175.708 81.4034 175.673 80.6959 175.789C79.987 175.91 79.3893 176.166 78.9026 176.555C78.4146 176.95 78.0974 177.468 77.951 178.11C77.8176 178.694 77.8723 179.207 78.1152 179.648C78.3581 180.089 78.7198 180.485 79.2003 180.836C79.6808 181.187 80.2108 181.519 80.7903 181.832L82.8147 182.945C84.0995 183.654 85.0592 184.467 85.6939 185.383C86.3286 186.3 86.5106 187.351 86.2399 188.537C86.015 189.522 85.5525 190.321 84.8523 190.932C84.1451 191.549 83.2924 191.957 82.2944 192.157C81.2893 192.361 80.2253 192.336 79.1024 192.079C77.968 191.82 77.0061 191.387 76.2167 190.779C75.4259 190.176 74.8525 189.467 74.4964 188.65C74.1346 187.832 74.0407 186.976 74.2147 186.081L76.2772 186.552Z" fill="white"/>
<path d="M54.3065 176.259L56.2761 177.208C56.1198 177.83 56.0839 178.426 56.1686 178.995C56.248 179.562 56.424 180.09 56.6968 180.58C56.9617 181.073 57.3073 181.514 57.7335 181.901C58.1598 182.289 58.643 182.613 59.1831 182.873C60.1678 183.348 61.1798 183.528 62.2189 183.416C63.2528 183.301 64.2386 182.872 65.1764 182.13C66.1089 181.385 66.9143 180.309 67.5925 178.901C68.2708 177.492 68.6102 176.192 68.6109 174.998C68.6063 173.802 68.3267 172.764 67.7722 171.884C67.2124 171.002 66.4401 170.323 65.4553 169.849C64.9153 169.589 64.3607 169.413 63.7917 169.322C63.2226 169.23 62.6641 169.232 62.1162 169.327C61.5604 169.424 61.0363 169.619 60.5439 169.91C60.0436 170.204 59.6001 170.603 59.2134 171.109L57.2438 170.16C57.7923 169.4 58.4206 168.786 59.1286 168.319C59.8365 167.851 60.5926 167.527 61.3968 167.347C62.1985 167.172 63.0194 167.14 63.8595 167.251C64.6943 167.359 65.522 167.611 66.3426 168.006C67.7298 168.674 68.8002 169.607 69.554 170.805C70.3077 172.003 70.6934 173.376 70.7111 174.924C70.7289 176.472 70.3247 178.103 69.4986 179.819C68.6725 181.534 67.6488 182.867 66.4276 183.818C65.2064 184.77 63.8926 185.324 62.4862 185.482C61.0797 185.639 59.6829 185.384 58.2958 184.716C57.4751 184.321 56.7621 183.831 56.1568 183.246C55.5462 182.658 55.0606 181.994 54.7 181.253C54.3369 180.517 54.1175 179.726 54.0419 178.881C53.9637 178.041 54.0519 177.167 54.3065 176.259Z" fill="white"/>
<path d="M57.2536 163.273L45.9981 177.387L41.229 173.584C40.1264 172.705 39.3715 171.795 38.9644 170.854C38.5536 169.917 38.4384 168.987 38.6187 168.064C38.799 167.14 39.2207 166.263 39.8839 165.431C40.5471 164.599 41.3051 163.998 42.1581 163.625C43.011 163.253 43.9355 163.164 44.9315 163.357C45.9239 163.555 46.9669 164.089 48.0603 164.961L51.9197 168.039L50.6886 169.583L46.8844 166.549C46.1309 165.948 45.4365 165.575 44.8012 165.429C44.1613 165.279 43.5768 165.324 43.0476 165.564C42.5102 165.804 42.0161 166.207 41.5655 166.772C41.1148 167.337 40.8266 167.915 40.7009 168.506C40.5751 169.098 40.6527 169.693 40.9335 170.293C41.2107 170.897 41.7306 171.504 42.4933 172.112L45.498 174.508L55.5445 161.91L57.2536 163.273ZM45.5539 164.315L47.1367 155.205L49.1215 156.788L47.4835 165.854L45.5539 164.315Z" fill="white"/>
<path d="M28.2186 146.553C29.7072 145.366 31.208 144.609 32.721 144.281C34.2339 143.954 35.6582 144.025 36.9937 144.493C38.3292 144.961 39.477 145.797 40.4369 147.001C41.3969 148.205 41.9565 149.51 42.1159 150.916C42.2752 152.322 42.0271 153.727 41.3715 155.129C40.7159 156.531 39.6438 157.826 38.1552 159.013C36.6666 160.2 35.1658 160.957 33.6529 161.284C32.1399 161.611 30.7157 161.541 29.3801 161.072C28.0446 160.604 26.8969 159.768 25.9369 158.564C24.977 157.361 24.4173 156.056 24.258 154.65C24.0986 153.243 24.3467 151.839 25.0024 150.437C25.658 149.035 26.7301 147.74 28.2186 146.553ZM29.5377 148.207C28.3155 149.181 27.4471 150.208 26.9324 151.288C26.4141 152.363 26.2156 153.419 26.337 154.457C26.4547 155.491 26.8543 156.435 27.5358 157.289C28.2173 158.144 29.0506 158.746 30.0357 159.095C31.0172 159.44 32.0913 159.482 33.2582 159.22C34.4214 158.954 35.6141 158.333 36.8362 157.359C38.0583 156.384 38.9285 155.36 39.4469 154.285C39.9616 153.205 40.1601 152.149 40.0424 151.115C39.921 150.077 39.5195 149.131 38.8381 148.276C38.1566 147.422 37.3251 146.822 36.3436 146.477C35.3585 146.128 34.2843 146.086 33.1211 146.352C31.9543 146.614 30.7598 147.232 29.5377 148.207Z" fill="white"/>
<path d="M33.3366 137.008L17.0718 144.841L16.1233 142.871L30.6409 135.88L26.9999 128.32L28.7471 127.478L33.3366 137.008Z" fill="white"/>
<path d="M26.7748 121.247L9.17492 125.264L8.68848 123.133L24.3978 119.547L22.5305 111.366L24.4211 110.934L26.7748 121.247Z" fill="white"/>
<path d="M6.38681 86.9593L6.9674 84.4155L22.9419 81.7688L22.989 81.5625L9.74483 72.2468L10.3254 69.7031L27.9253 73.7202L27.4703 75.7139L14.0985 72.6619L14.0592 72.8338L26.1757 81.3858L25.7364 83.3107L11.1092 85.7587L11.07 85.9306L24.4418 88.9826L23.9867 90.9763L6.38681 86.9593Z" fill="white"/>
<path d="M26.9169 55.5289C28.6323 56.355 29.9656 57.3786 30.9168 58.5998C31.868 59.821 32.4224 61.1348 32.5799 62.5412C32.7375 63.9477 32.4823 65.3445 31.8142 66.7317C31.1462 68.1188 30.2133 69.1893 29.0154 69.943C27.8176 70.6967 26.4448 71.0824 24.897 71.1002C23.3491 71.1179 21.7175 70.7137 20.0021 69.8876C18.2867 69.0615 16.9533 68.0378 16.0022 66.8167C15.051 65.5955 14.4966 64.2816 14.339 62.8752C14.1815 61.4688 14.4367 60.072 15.1047 58.6848C15.7727 57.2976 16.7057 56.2272 17.9035 55.4735C19.1014 54.7197 20.4742 54.334 22.022 54.3163C23.5698 54.2986 25.2015 54.7027 26.9169 55.5289ZM25.999 57.4349C24.5906 56.7567 23.2886 56.4199 22.0927 56.4245C20.8995 56.4238 19.8615 56.7034 18.9788 57.2632C18.0987 57.8177 17.4215 58.5873 16.9472 59.5721C16.473 60.5569 16.2922 61.5688 16.4049 62.608C16.5201 63.6418 16.9487 64.6277 17.6907 65.5655C18.4352 66.498 19.5116 67.3033 20.92 67.9816C22.3283 68.6598 23.6291 68.9992 24.8224 68.9999C26.0182 68.9953 27.0562 68.7157 27.9363 68.1612C28.819 67.6014 29.4975 66.8291 29.9717 65.8444C30.446 64.8596 30.6255 63.8503 30.5103 62.8164C30.3976 61.7773 29.969 60.7914 29.2245 59.8589C28.4825 58.9211 27.4073 58.1131 25.999 57.4349Z" fill="white"/>
<path d="M36.7325 57.2595L22.6185 46.0039L26.4216 41.2349C27.301 40.1322 28.2111 39.3774 29.1521 38.9703C30.0885 38.5595 31.0185 38.4443 31.942 38.6246C32.8655 38.8049 33.7431 39.2266 34.5747 39.8898C35.4063 40.5529 36.0081 41.311 36.3802 42.1639C36.7523 43.0168 36.8418 43.9413 36.6488 44.9374C36.4512 45.9298 35.9164 46.9727 35.0443 48.0662L31.9666 51.9255L30.4229 50.6944L33.4567 46.8903C34.0575 46.1368 34.4309 45.4424 34.5768 44.8071C34.7263 44.1672 34.6813 43.5826 34.4419 43.0535C34.2015 42.516 33.7988 42.022 33.2337 41.5713C32.6686 41.1206 32.0904 40.8324 31.4992 40.7067C30.908 40.581 30.3125 40.6585 29.7127 40.9394C29.1083 41.2165 28.502 41.7365 27.8938 42.4991L25.4976 45.5039L38.0955 55.5504L36.7325 57.2595ZM35.6902 45.5597L44.8005 47.1426L43.2177 49.1274L34.1514 47.4894L35.6902 45.5597Z" fill="white"/>
<path d="M48.4951 43.7238L37.2396 29.6098L45.7576 22.8168L46.9667 24.333L40.1578 29.7629L43.9609 34.5319L50.3288 29.4537L51.5379 30.9699L45.17 36.0481L48.9952 40.8447L55.9143 35.3268L57.1234 36.8429L48.4951 43.7238Z" fill="white"/>
<path d="M123.723 13.4586C123.818 12.5642 123.554 11.7927 122.931 11.1441C122.308 10.4955 121.463 10.0496 120.397 9.80635C119.618 9.62851 118.908 9.59894 118.266 9.71765C117.63 9.83766 117.098 10.081 116.671 10.4476C116.249 10.8155 115.974 11.2802 115.846 11.8416C115.739 12.3114 115.758 12.7408 115.905 13.1298C116.058 13.5144 116.287 13.859 116.591 14.1635C116.896 14.4623 117.228 14.7277 117.585 14.9599C117.943 15.1863 118.275 15.3798 118.582 15.5402L120.26 16.4295C120.691 16.6544 121.163 16.9369 121.676 17.277C122.195 17.6185 122.67 18.0314 123.102 18.5157C123.541 18.9957 123.865 19.5578 124.073 20.2021C124.282 20.8465 124.292 21.5811 124.104 22.4061C123.887 23.3572 123.441 24.1596 122.768 24.8136C122.1 25.4688 121.239 25.9142 120.184 26.1498C119.136 26.3866 117.935 26.3507 116.583 26.0421C115.323 25.7544 114.278 25.3019 113.448 24.6846C112.624 24.0687 112.032 23.3367 111.671 22.4888C111.316 21.6422 111.213 20.7298 111.364 19.7516L113.564 20.2538C113.47 20.9314 113.568 21.5324 113.858 22.0568C114.155 22.5767 114.581 23.0113 115.134 23.3605C115.694 23.7054 116.324 23.9576 117.022 24.1171C117.836 24.3028 118.597 24.3378 119.304 24.222C120.013 24.1005 120.611 23.8451 121.097 23.4559C121.585 23.061 121.903 22.5427 122.049 21.901C122.182 21.3166 122.128 20.8038 121.885 20.3626C121.642 19.9214 121.28 19.5254 120.8 19.1747C120.319 18.8239 119.789 18.492 119.21 18.1789L117.185 17.0658C115.901 16.3567 114.941 15.5439 114.306 14.6275C113.671 13.7111 113.489 12.6599 113.76 11.474C113.985 10.4886 114.448 9.69003 115.148 9.07831C115.855 8.46217 116.708 8.05402 117.706 7.85386C118.711 7.64927 119.775 7.67513 120.898 7.93143C122.032 8.19034 122.994 8.62387 123.783 9.23201C124.574 9.83443 125.148 10.544 125.504 11.3606C125.865 12.1786 125.959 13.0348 125.785 13.9294L123.723 13.4586Z" fill="white"/>
<path d="M145.693 23.7514L143.724 22.8029C143.88 22.1803 143.916 21.5844 143.831 21.0153C143.752 20.4488 143.576 19.9205 143.303 19.4304C143.038 18.9376 142.693 18.4972 142.266 18.1093C141.84 17.7214 141.357 17.3974 140.817 17.1373C139.832 16.6631 138.82 16.4823 137.781 16.595C136.747 16.7102 135.761 17.1388 134.824 17.8808C133.891 18.6253 133.086 19.7017 132.407 21.1101C131.729 22.5184 131.39 23.8192 131.389 25.0125C131.394 26.2083 131.673 27.2463 132.228 28.1264C132.788 29.0091 133.56 29.6876 134.545 30.1618C135.085 30.4219 135.639 30.5977 136.208 30.6891C136.777 30.7805 137.336 30.7788 137.884 30.6839C138.44 30.5863 138.964 30.3919 139.456 30.1007C139.956 29.8068 140.4 29.4073 140.787 28.9022L142.756 29.8507C142.208 30.6105 141.579 31.2244 140.871 31.6922C140.163 32.16 139.407 32.484 138.603 32.6642C137.801 32.8391 136.981 32.871 136.141 32.7599C135.306 32.6514 134.478 32.3995 133.657 32.0043C132.27 31.3363 131.2 30.4034 130.446 29.2055C129.692 28.0077 129.307 26.6349 129.289 25.0871C129.271 23.5392 129.675 21.9076 130.501 20.1922C131.328 18.4768 132.351 17.1434 133.572 16.1923C134.794 15.2411 136.107 14.6867 137.514 14.5291C138.92 14.3716 140.317 14.6268 141.704 15.2948C142.525 15.69 143.238 16.1801 143.843 16.7652C144.454 17.3527 144.939 18.017 145.3 18.7581C145.663 19.4939 145.882 20.2844 145.958 21.1296C146.036 21.9695 145.948 22.8434 145.693 23.7514Z" fill="white"/>
<path d="M142.744 36.7376L154 22.6235L158.769 26.4267C159.872 27.306 160.627 28.2162 161.034 29.1572C161.444 30.0936 161.56 31.0235 161.379 31.9471C161.199 32.8706 160.777 33.7482 160.114 34.5798C159.451 35.4113 158.693 36.0132 157.84 36.3853C156.987 36.7574 156.063 36.8469 155.067 36.6539C154.074 36.4562 153.031 35.9214 151.938 35.0494L148.078 31.9717L149.309 30.428L153.114 33.4617C153.867 34.0626 154.562 34.436 155.197 34.5818C155.837 34.7314 156.421 34.6864 156.95 34.447C157.488 34.2066 157.982 33.8039 158.433 33.2388C158.883 32.6736 159.171 32.0955 159.297 31.5043C159.423 30.913 159.345 30.3175 159.065 29.7177C158.787 29.1134 158.267 28.5071 157.505 27.8989L154.5 25.5027L144.454 38.1006L142.744 36.7376ZM154.444 35.6953L152.861 44.8055L150.877 43.2227L152.515 34.1565L154.444 35.6953Z" fill="white"/>
<path d="M171.781 53.4579C170.293 54.645 168.792 55.4021 167.279 55.7293C165.766 56.0564 164.342 55.9859 163.006 55.5176C161.671 55.0493 160.523 54.2133 159.563 53.0096C158.603 51.8058 158.043 50.5008 157.884 49.0946C157.725 47.6883 157.973 46.2841 158.629 44.8819C159.284 43.4796 160.356 42.185 161.845 40.9979C163.333 39.8107 164.834 39.0536 166.347 38.7265C167.86 38.3993 169.284 38.4699 170.62 38.9382C171.955 39.4065 173.103 40.2425 174.063 41.4462C175.023 42.6499 175.583 43.9549 175.742 45.3612C175.901 46.7674 175.653 48.1717 174.998 49.5739C174.342 50.9761 173.27 52.2708 171.781 53.4579ZM170.462 51.8039C171.684 50.8293 172.553 49.8023 173.068 48.7229C173.586 47.6481 173.784 46.5916 173.663 45.5535C173.545 44.5199 173.146 43.5758 172.464 42.7213C171.783 41.8667 170.949 41.2647 169.964 40.9154C168.983 40.5706 167.909 40.5291 166.742 40.7907C165.579 41.0568 164.386 41.6772 163.164 42.6518C161.942 43.6264 161.071 44.6512 160.553 45.726C160.038 46.8054 159.84 47.8618 159.958 48.8954C160.079 49.9336 160.48 50.8799 161.162 51.7345C161.843 52.5891 162.675 53.1887 163.656 53.5335C164.642 53.8828 165.716 53.9244 166.879 53.6582C168.046 53.3966 169.24 52.7785 170.462 51.8039Z" fill="white"/>
<path d="M166.661 63.0024L182.926 55.1697L183.875 57.1393L169.357 64.1306L172.998 71.6912L171.251 72.5326L166.661 63.0024Z" fill="white"/>
<path d="M173.225 78.7641L190.825 74.747L191.312 76.8782L175.602 80.4638L177.47 88.645L175.579 89.0765L173.225 78.7641Z" fill="white"/>
<path d="M193.613 113.052L193.033 115.595L177.058 118.242L177.011 118.448L190.255 127.764L189.675 130.308L172.075 126.291L172.53 124.297L185.902 127.349L185.941 127.177L173.824 118.625L174.264 116.7L188.891 114.252L188.93 114.08L175.558 111.028L176.013 109.034L193.613 113.052Z" fill="white"/>
<path d="M173.08 144.482C171.365 143.656 170.031 142.632 169.08 141.411C168.129 140.19 167.575 138.876 167.417 137.469C167.26 136.063 167.515 134.666 168.183 133.279C168.851 131.892 169.784 130.821 170.982 130.068C172.179 129.314 173.552 128.928 175.1 128.911C176.648 128.893 178.28 129.297 179.995 130.123C181.71 130.949 183.044 131.973 183.995 133.194C184.946 134.415 185.5 135.729 185.658 137.135C185.816 138.542 185.56 139.939 184.892 141.326C184.224 142.713 183.291 143.784 182.094 144.537C180.896 145.291 179.523 145.677 177.975 145.694C176.427 145.712 174.796 145.308 173.08 144.482ZM173.998 142.576C175.406 143.254 176.709 143.591 177.904 143.586C179.098 143.587 180.136 143.307 181.018 142.748C181.898 142.193 182.576 141.423 183.05 140.439C183.524 139.454 183.705 138.442 183.592 137.403C183.477 136.369 183.048 135.383 182.306 134.445C181.562 133.513 180.485 132.707 179.077 132.029C177.669 131.351 176.368 131.011 175.175 131.011C173.979 131.015 172.941 131.295 172.061 131.849C171.178 132.409 170.5 133.182 170.025 134.166C169.551 135.151 169.372 136.16 169.487 137.194C169.599 138.233 170.028 139.219 170.773 140.152C171.515 141.09 172.59 141.898 173.998 142.576Z" fill="white"/>
<path d="M163.267 142.751L177.381 154.007L173.577 158.776C172.698 159.878 171.788 160.633 170.847 161.04C169.911 161.451 168.981 161.566 168.057 161.386C167.133 161.206 166.256 160.784 165.424 160.121C164.593 159.458 163.991 158.7 163.619 157.847C163.247 156.994 163.157 156.069 163.35 155.073C163.548 154.081 164.083 153.038 164.955 151.944L168.032 148.085L169.576 149.316L166.542 153.12C165.941 153.874 165.568 154.568 165.422 155.204C165.273 155.844 165.318 156.428 165.557 156.957C165.797 157.495 166.2 157.989 166.765 158.439C167.33 158.89 167.909 159.178 168.5 159.304C169.091 159.43 169.687 159.352 170.286 159.071C170.891 158.794 171.497 158.274 172.105 157.512L174.501 154.507L161.904 144.46L163.267 142.751ZM164.309 154.451L155.199 152.868L156.781 150.883L165.848 152.521L164.309 154.451Z" fill="white"/>
<path d="M151.505 156.287L162.76 170.401L154.242 177.194L153.033 175.678L159.842 170.248L156.039 165.479L149.671 170.557L148.462 169.041L154.83 163.963L151.005 159.166L144.086 164.684L142.877 163.168L151.505 156.287Z" fill="white"/>
</svg>
